<mxfile host="app.diagrams.net" modified="2023-10-06T15:27:11.177Z" agent="Mozilla/5.0 (Macintosh; Intel Mac OS X 10_15_7) AppleWebKit/605.1.15 (KHTML, like Gecko) Version/16.5.1 Safari/605.1.15" etag="AIAy5ss4g2eaJ9n9jsJ2" version="22.0.3" type="github">
  <diagram name="Página-1" id="EdgKUlwmbzRAvswMbE0I">
    <mxGraphModel dx="954" dy="551" grid="1" gridSize="10" guides="1" tooltips="1" connect="1" arrows="1" fold="1" page="1" pageScale="1" pageWidth="827" pageHeight="1169" math="0" shadow="0">
      <root>
        <mxCell id="0" />
        <mxCell id="1" parent="0" />
        <mxCell id="lyJ5Nnh-JUwFfBlFAnki-9" value="Persona" style="swimlane;fontStyle=1;align=center;verticalAlign=top;childLayout=stackLayout;horizontal=1;startSize=26;horizontalStack=0;resizeParent=1;resizeParentMax=0;resizeLast=0;collapsible=1;marginBottom=0;whiteSpace=wrap;html=1;" vertex="1" parent="1">
          <mxGeometry x="254" y="100" width="160" height="108" as="geometry" />
        </mxCell>
        <mxCell id="lyJ5Nnh-JUwFfBlFAnki-10" value="ítems: int(numero de cosas)&lt;br&gt;local: int" style="text;strokeColor=none;fillColor=none;align=left;verticalAlign=top;spacingLeft=4;spacingRight=4;overflow=hidden;rotatable=0;points=[[0,0.5],[1,0.5]];portConstraint=eastwest;whiteSpace=wrap;html=1;" vertex="1" parent="lyJ5Nnh-JUwFfBlFAnki-9">
          <mxGeometry y="26" width="160" height="74" as="geometry" />
        </mxCell>
        <mxCell id="lyJ5Nnh-JUwFfBlFAnki-11" value="" style="line;strokeWidth=1;fillColor=none;align=left;verticalAlign=middle;spacingTop=-1;spacingLeft=3;spacingRight=3;rotatable=0;labelPosition=right;points=[];portConstraint=eastwest;strokeColor=inherit;" vertex="1" parent="lyJ5Nnh-JUwFfBlFAnki-9">
          <mxGeometry y="100" width="160" height="8" as="geometry" />
        </mxCell>
        <mxCell id="lyJ5Nnh-JUwFfBlFAnki-18" value="Extends" style="endArrow=block;endSize=16;endFill=0;html=1;rounded=0;entryX=0;entryY=1;entryDx=0;entryDy=0;" edge="1" parent="1" target="lyJ5Nnh-JUwFfBlFAnki-9">
          <mxGeometry width="160" relative="1" as="geometry">
            <mxPoint x="150" y="300" as="sourcePoint" />
            <mxPoint x="310" y="300" as="targetPoint" />
          </mxGeometry>
        </mxCell>
        <mxCell id="lyJ5Nnh-JUwFfBlFAnki-20" value="Clientes" style="swimlane;fontStyle=1;align=center;verticalAlign=top;childLayout=stackLayout;horizontal=1;startSize=26;horizontalStack=0;resizeParent=1;resizeParentMax=0;resizeLast=0;collapsible=1;marginBottom=0;whiteSpace=wrap;html=1;" vertex="1" parent="1">
          <mxGeometry x="520" y="292" width="160" height="128" as="geometry" />
        </mxCell>
        <mxCell id="lyJ5Nnh-JUwFfBlFAnki-21" value="+Buscfactor; int&lt;br&gt;+ search_time: int" style="text;strokeColor=none;fillColor=none;align=left;verticalAlign=top;spacingLeft=4;spacingRight=4;overflow=hidden;rotatable=0;points=[[0,0.5],[1,0.5]];portConstraint=eastwest;whiteSpace=wrap;html=1;" vertex="1" parent="lyJ5Nnh-JUwFfBlFAnki-20">
          <mxGeometry y="26" width="160" height="34" as="geometry" />
        </mxCell>
        <mxCell id="lyJ5Nnh-JUwFfBlFAnki-22" value="" style="line;strokeWidth=1;fillColor=none;align=left;verticalAlign=middle;spacingTop=-1;spacingLeft=3;spacingRight=3;rotatable=0;labelPosition=right;points=[];portConstraint=eastwest;strokeColor=inherit;" vertex="1" parent="lyJ5Nnh-JUwFfBlFAnki-20">
          <mxGeometry y="60" width="160" height="8" as="geometry" />
        </mxCell>
        <mxCell id="lyJ5Nnh-JUwFfBlFAnki-23" value="+set_target()&lt;br&gt;+ Buscar: ítems(items)&lt;br&gt;+ Comprar(): int" style="text;strokeColor=none;fillColor=none;align=left;verticalAlign=top;spacingLeft=4;spacingRight=4;overflow=hidden;rotatable=0;points=[[0,0.5],[1,0.5]];portConstraint=eastwest;whiteSpace=wrap;html=1;" vertex="1" parent="lyJ5Nnh-JUwFfBlFAnki-20">
          <mxGeometry y="68" width="160" height="60" as="geometry" />
        </mxCell>
        <mxCell id="lyJ5Nnh-JUwFfBlFAnki-42" value="1" style="endArrow=open;html=1;endSize=12;startArrow=diamondThin;startSize=14;startFill=0;edgeStyle=orthogonalEdgeStyle;align=left;verticalAlign=bottom;rounded=0;entryX=0.55;entryY=-0.011;entryDx=0;entryDy=0;entryPerimeter=0;" edge="1" parent="lyJ5Nnh-JUwFfBlFAnki-20" target="lyJ5Nnh-JUwFfBlFAnki-38">
          <mxGeometry x="-1" y="3" relative="1" as="geometry">
            <mxPoint x="100" y="128" as="sourcePoint" />
            <mxPoint x="260" y="128" as="targetPoint" />
          </mxGeometry>
        </mxCell>
        <mxCell id="lyJ5Nnh-JUwFfBlFAnki-25" value="Extends" style="endArrow=block;endSize=16;endFill=0;html=1;rounded=0;entryX=1;entryY=1;entryDx=0;entryDy=0;exitX=0.5;exitY=0;exitDx=0;exitDy=0;" edge="1" parent="1" source="lyJ5Nnh-JUwFfBlFAnki-20" target="lyJ5Nnh-JUwFfBlFAnki-9">
          <mxGeometry width="160" relative="1" as="geometry">
            <mxPoint x="450" y="290" as="sourcePoint" />
            <mxPoint x="610" y="290" as="targetPoint" />
          </mxGeometry>
        </mxCell>
        <mxCell id="lyJ5Nnh-JUwFfBlFAnki-26" value="Validador&amp;nbsp;" style="swimlane;fontStyle=1;align=center;verticalAlign=top;childLayout=stackLayout;horizontal=1;startSize=26;horizontalStack=0;resizeParent=1;resizeParentMax=0;resizeLast=0;collapsible=1;marginBottom=0;whiteSpace=wrap;html=1;" vertex="1" parent="1">
          <mxGeometry x="80" y="301" width="160" height="110" as="geometry" />
        </mxCell>
        <mxCell id="lyJ5Nnh-JUwFfBlFAnki-27" value="+ Valid factor:int" style="text;strokeColor=none;fillColor=none;align=left;verticalAlign=top;spacingLeft=4;spacingRight=4;overflow=hidden;rotatable=0;points=[[0,0.5],[1,0.5]];portConstraint=eastwest;whiteSpace=wrap;html=1;" vertex="1" parent="lyJ5Nnh-JUwFfBlFAnki-26">
          <mxGeometry y="26" width="160" height="26" as="geometry" />
        </mxCell>
        <mxCell id="lyJ5Nnh-JUwFfBlFAnki-28" value="" style="line;strokeWidth=1;fillColor=none;align=left;verticalAlign=middle;spacingTop=-1;spacingLeft=3;spacingRight=3;rotatable=0;labelPosition=right;points=[];portConstraint=eastwest;strokeColor=inherit;" vertex="1" parent="lyJ5Nnh-JUwFfBlFAnki-26">
          <mxGeometry y="52" width="160" height="8" as="geometry" />
        </mxCell>
        <mxCell id="lyJ5Nnh-JUwFfBlFAnki-29" value="+ get ítem(nietos)&lt;br&gt;+Validar(ítem)" style="text;strokeColor=none;fillColor=none;align=left;verticalAlign=top;spacingLeft=4;spacingRight=4;overflow=hidden;rotatable=0;points=[[0,0.5],[1,0.5]];portConstraint=eastwest;whiteSpace=wrap;html=1;" vertex="1" parent="lyJ5Nnh-JUwFfBlFAnki-26">
          <mxGeometry y="60" width="160" height="50" as="geometry" />
        </mxCell>
        <mxCell id="lyJ5Nnh-JUwFfBlFAnki-30" value="Caja" style="swimlane;fontStyle=1;align=center;verticalAlign=top;childLayout=stackLayout;horizontal=1;startSize=26;horizontalStack=0;resizeParent=1;resizeParentMax=0;resizeLast=0;collapsible=1;marginBottom=0;whiteSpace=wrap;html=1;" vertex="1" parent="1">
          <mxGeometry x="290" y="530" width="160" height="120" as="geometry" />
        </mxCell>
        <mxCell id="lyJ5Nnh-JUwFfBlFAnki-31" value="+ cajero: Valildador()&lt;br&gt;+ cola: Clientes[]" style="text;strokeColor=none;fillColor=none;align=left;verticalAlign=top;spacingLeft=4;spacingRight=4;overflow=hidden;rotatable=0;points=[[0,0.5],[1,0.5]];portConstraint=eastwest;whiteSpace=wrap;html=1;" vertex="1" parent="lyJ5Nnh-JUwFfBlFAnki-30">
          <mxGeometry y="26" width="160" height="34" as="geometry" />
        </mxCell>
        <mxCell id="lyJ5Nnh-JUwFfBlFAnki-32" value="" style="line;strokeWidth=1;fillColor=none;align=left;verticalAlign=middle;spacingTop=-1;spacingLeft=3;spacingRight=3;rotatable=0;labelPosition=right;points=[];portConstraint=eastwest;strokeColor=inherit;" vertex="1" parent="lyJ5Nnh-JUwFfBlFAnki-30">
          <mxGeometry y="60" width="160" height="8" as="geometry" />
        </mxCell>
        <mxCell id="lyJ5Nnh-JUwFfBlFAnki-33" value="+ add_cliente(Cliente)&lt;br&gt;+ trabajar(int)&lt;br&gt;+ nick_clients()" style="text;strokeColor=none;fillColor=none;align=left;verticalAlign=top;spacingLeft=4;spacingRight=4;overflow=hidden;rotatable=0;points=[[0,0.5],[1,0.5]];portConstraint=eastwest;whiteSpace=wrap;html=1;" vertex="1" parent="lyJ5Nnh-JUwFfBlFAnki-30">
          <mxGeometry y="68" width="160" height="52" as="geometry" />
        </mxCell>
        <mxCell id="lyJ5Nnh-JUwFfBlFAnki-36" value="1" style="endArrow=open;html=1;endSize=12;startArrow=diamondThin;startSize=14;startFill=0;edgeStyle=orthogonalEdgeStyle;align=left;verticalAlign=bottom;rounded=0;entryX=0.75;entryY=0;entryDx=0;entryDy=0;" edge="1" parent="1" source="lyJ5Nnh-JUwFfBlFAnki-23" target="lyJ5Nnh-JUwFfBlFAnki-30">
          <mxGeometry x="-1" y="3" relative="1" as="geometry">
            <mxPoint x="580" y="429" as="sourcePoint" />
            <mxPoint x="740" y="429" as="targetPoint" />
            <Array as="points">
              <mxPoint x="590" y="430" />
              <mxPoint x="410" y="430" />
            </Array>
          </mxGeometry>
        </mxCell>
        <mxCell id="lyJ5Nnh-JUwFfBlFAnki-37" value="1" style="endArrow=open;html=1;endSize=12;startArrow=diamondThin;startSize=14;startFill=1;edgeStyle=orthogonalEdgeStyle;align=left;verticalAlign=bottom;rounded=0;entryX=0.175;entryY=-0.019;entryDx=0;entryDy=0;entryPerimeter=0;" edge="1" parent="1" target="lyJ5Nnh-JUwFfBlFAnki-30">
          <mxGeometry x="-1" y="3" relative="1" as="geometry">
            <mxPoint x="140" y="411" as="sourcePoint" />
            <mxPoint x="300" y="411" as="targetPoint" />
          </mxGeometry>
        </mxCell>
        <mxCell id="lyJ5Nnh-JUwFfBlFAnki-38" value="Supermarket" style="swimlane;fontStyle=1;align=center;verticalAlign=top;childLayout=stackLayout;horizontal=1;startSize=26;horizontalStack=0;resizeParent=1;resizeParentMax=0;resizeLast=0;collapsible=1;marginBottom=0;whiteSpace=wrap;html=1;" vertex="1" parent="1">
          <mxGeometry x="590" y="600" width="160" height="190" as="geometry" />
        </mxCell>
        <mxCell id="lyJ5Nnh-JUwFfBlFAnki-39" value="+ cajas: Caja[]&lt;br&gt;+ clientes_buscando[]&lt;br&gt;+ clientestotales[]" style="text;strokeColor=none;fillColor=none;align=left;verticalAlign=top;spacingLeft=4;spacingRight=4;overflow=hidden;rotatable=0;points=[[0,0.5],[1,0.5]];portConstraint=eastwest;whiteSpace=wrap;html=1;" vertex="1" parent="lyJ5Nnh-JUwFfBlFAnki-38">
          <mxGeometry y="26" width="160" height="64" as="geometry" />
        </mxCell>
        <mxCell id="lyJ5Nnh-JUwFfBlFAnki-40" value="" style="line;strokeWidth=1;fillColor=none;align=left;verticalAlign=middle;spacingTop=-1;spacingLeft=3;spacingRight=3;rotatable=0;labelPosition=right;points=[];portConstraint=eastwest;strokeColor=inherit;" vertex="1" parent="lyJ5Nnh-JUwFfBlFAnki-38">
          <mxGeometry y="90" width="160" height="8" as="geometry" />
        </mxCell>
        <mxCell id="lyJ5Nnh-JUwFfBlFAnki-41" value="+ set_flujo(clientes(?))&lt;br&gt;- clientes_nuevos(int)&lt;br&gt;- clientes_buscar(int)&lt;br&gt;- asignar_cajas(int)&lt;br&gt;+ run(int)&amp;nbsp;" style="text;strokeColor=none;fillColor=none;align=left;verticalAlign=top;spacingLeft=4;spacingRight=4;overflow=hidden;rotatable=0;points=[[0,0.5],[1,0.5]];portConstraint=eastwest;whiteSpace=wrap;html=1;" vertex="1" parent="lyJ5Nnh-JUwFfBlFAnki-38">
          <mxGeometry y="98" width="160" height="92" as="geometry" />
        </mxCell>
        <mxCell id="lyJ5Nnh-JUwFfBlFAnki-43" value="1" style="endArrow=open;html=1;endSize=12;startArrow=diamondThin;startSize=14;startFill=1;edgeStyle=orthogonalEdgeStyle;align=left;verticalAlign=bottom;rounded=0;entryX=0;entryY=0.022;entryDx=0;entryDy=0;entryPerimeter=0;" edge="1" parent="1" target="lyJ5Nnh-JUwFfBlFAnki-41">
          <mxGeometry x="-1" y="3" relative="1" as="geometry">
            <mxPoint x="450" y="630" as="sourcePoint" />
            <mxPoint x="590" y="693" as="targetPoint" />
          </mxGeometry>
        </mxCell>
        <mxCell id="lyJ5Nnh-JUwFfBlFAnki-44" value="Simulación" style="swimlane;fontStyle=1;align=center;verticalAlign=top;childLayout=stackLayout;horizontal=1;startSize=26;horizontalStack=0;resizeParent=1;resizeParentMax=0;resizeLast=0;collapsible=1;marginBottom=0;whiteSpace=wrap;html=1;" vertex="1" parent="1">
          <mxGeometry x="340" y="820" width="160" height="86" as="geometry" />
        </mxCell>
        <mxCell id="lyJ5Nnh-JUwFfBlFAnki-45" value="+ local: Supermarket()" style="text;strokeColor=none;fillColor=none;align=left;verticalAlign=top;spacingLeft=4;spacingRight=4;overflow=hidden;rotatable=0;points=[[0,0.5],[1,0.5]];portConstraint=eastwest;whiteSpace=wrap;html=1;" vertex="1" parent="lyJ5Nnh-JUwFfBlFAnki-44">
          <mxGeometry y="26" width="160" height="26" as="geometry" />
        </mxCell>
        <mxCell id="lyJ5Nnh-JUwFfBlFAnki-46" value="" style="line;strokeWidth=1;fillColor=none;align=left;verticalAlign=middle;spacingTop=-1;spacingLeft=3;spacingRight=3;rotatable=0;labelPosition=right;points=[];portConstraint=eastwest;strokeColor=inherit;" vertex="1" parent="lyJ5Nnh-JUwFfBlFAnki-44">
          <mxGeometry y="52" width="160" height="8" as="geometry" />
        </mxCell>
        <mxCell id="lyJ5Nnh-JUwFfBlFAnki-47" value="+ correr_simulacion()" style="text;strokeColor=none;fillColor=none;align=left;verticalAlign=top;spacingLeft=4;spacingRight=4;overflow=hidden;rotatable=0;points=[[0,0.5],[1,0.5]];portConstraint=eastwest;whiteSpace=wrap;html=1;" vertex="1" parent="lyJ5Nnh-JUwFfBlFAnki-44">
          <mxGeometry y="60" width="160" height="26" as="geometry" />
        </mxCell>
        <mxCell id="lyJ5Nnh-JUwFfBlFAnki-48" value="1" style="endArrow=open;html=1;endSize=12;startArrow=diamondThin;startSize=14;startFill=1;edgeStyle=orthogonalEdgeStyle;align=left;verticalAlign=bottom;rounded=0;entryX=0.5;entryY=0;entryDx=0;entryDy=0;exitX=-0.012;exitY=0.88;exitDx=0;exitDy=0;exitPerimeter=0;" edge="1" parent="1" source="lyJ5Nnh-JUwFfBlFAnki-41" target="lyJ5Nnh-JUwFfBlFAnki-44">
          <mxGeometry x="-1" y="3" relative="1" as="geometry">
            <mxPoint x="670" y="800" as="sourcePoint" />
            <mxPoint x="600" y="840" as="targetPoint" />
          </mxGeometry>
        </mxCell>
      </root>
    </mxGraphModel>
  </diagram>
</mxfile>
